<svg xmlns="http://www.w3.org/2000/svg" fill="none" viewBox="0 0 287 286"><style>#inkwell{fill:#000}@media (prefers-color-scheme:dark){#inkwell{fill:#fff}}</style><g id="cubes"><path fill="#4C69FF" d="M133 57V6h54v51h-54Z"/><path fill="#EA0046" d="M226 137V94h47v43h-47Z"/><path fill="#EF094E" d="M96 94 63 68l28-32 33 27-28 31Z"/><path fill="#A51A7E" d="m252 72-42-33 35-39 42 33-35 39Z"/><path fill="#EA5400" d="m185 180 48-37 40 44-48 38-40-45Z"/><path fill="#FFC700" d="m100 206 85-26 28 80-85 26-28-80Z"/><path fill="#F90" d="m1 182 18-63 67 17-18 64-67-18Z"/></g><g id="inkwell"><path d="M181 101h-32v30h32v-30Z"/><path d="m68 200 81-76 6 7-81 76z"/></g></svg>