<?xml version="1.0" standalone="no"?>
<!DOCTYPE svg PUBLIC "-//W3C//DTD SVG 20010904//EN"
 "http://www.w3.org/TR/2001/REC-SVG-20010904/DTD/svg10.dtd">
<svg version="1.0" xmlns="http://www.w3.org/2000/svg"
 width="574.000000pt" height="574.000000pt" viewBox="0 0 574.000000 574.000000"
 preserveAspectRatio="xMidYMid meet">
<metadata>
Created by potrace 1.14, written by Peter Selinger 2001-2017
</metadata>
<g transform="translate(0.000000,574.000000) scale(0.100000,-0.100000)"
fill="#000000" stroke="none">
<path d="M4893 5716 c-4 -7 -40 -49 -80 -92 -39 -44 -81 -90 -93 -104 -12 -14
-48 -54 -80 -90 -32 -36 -67 -75 -77 -86 -10 -12 -40 -46 -68 -76 -27 -30 -77
-85 -110 -122 -33 -38 -83 -94 -112 -125 -29 -31 -53 -61 -53 -68 0 -13 17
-31 50 -53 13 -8 37 -26 54 -41 17 -14 73 -58 125 -99 52 -40 102 -79 110 -86
18 -15 182 -144 221 -174 14 -11 52 -41 86 -67 33 -26 75 -59 93 -73 18 -14
42 -33 53 -42 12 -10 24 -18 28 -18 4 0 31 28 61 61 30 34 68 76 84 94 17 17
57 62 90 100 33 37 69 78 80 89 11 12 74 82 140 156 65 74 130 146 143 160 13
14 41 46 62 71 l39 45 -151 120 c-82 65 -157 124 -166 129 -9 6 -22 16 -30 22
-7 7 -75 61 -150 120 -75 59 -139 110 -142 113 -3 3 -32 25 -65 50 -33 25 -69
53 -80 63 -34 32 -53 39 -62 23z"/>
<path d="M2659 5595 c-1 -14 -1 -966 0 -990 1 -20 8 -20 539 -20 295 0 539 2
542 6 3 4 5 234 5 510 l0 504 -543 0 c-356 0 -542 -3 -543 -10z"/>
<path d="M1786 4968 c-75 -86 -143 -163 -161 -182 -31 -34 -169 -188 -196
-219 -13 -16 -37 -43 -54 -61 -73 -77 -105 -116 -105 -124 0 -5 48 -47 107
-93 119 -93 140 -109 157 -124 6 -6 71 -57 145 -115 248 -194 261 -204 261
-181 0 5 17 27 38 48 37 39 65 70 177 198 33 37 77 87 98 109 22 23 58 63 80
89 23 27 66 74 94 105 29 32 53 59 52 62 0 3 -47 41 -105 85 -57 44 -114 89
-127 100 -13 11 -38 31 -56 45 -18 14 -45 35 -59 46 -15 12 -85 67 -157 122
-71 56 -135 106 -142 112 -16 14 -15 14 -47 -22z"/>
<path d="M4525 3833 c1 -13 -1 -25 -5 -28 -4 -2 -4 -24 0 -48 3 -24 4 -52 0
-61 -3 -10 -3 -42 0 -72 3 -30 3 -59 0 -65 -4 -6 -4 -27 0 -48 4 -20 4 -45 0
-55 -3 -10 -3 -42 0 -72 3 -30 3 -59 0 -65 -4 -6 -4 -27 0 -48 4 -21 3 -47 -1
-59 -5 -12 -4 -24 1 -27 5 -3 5 -18 1 -33 -4 -15 -5 -38 -1 -52 4 -14 4 -34 0
-45 -4 -11 -4 -31 0 -45 l6 -25 458 -1 c251 0 460 4 462 8 4 7 6 380 4 774 l0
90 -464 0 -464 1 3 -24z"/>
<path d="M2980 3475 l0 -231 -112 -104 c-62 -58 -135 -127 -162 -153 -28 -27
-98 -92 -155 -145 -57 -53 -125 -117 -151 -142 -99 -93 -276 -259 -310 -290
-19 -18 -91 -85 -160 -150 -69 -64 -143 -134 -165 -155 -102 -95 -273 -256
-336 -315 l-68 -65 58 -63 c64 -69 72 -71 117 -20 12 12 68 66 125 119 57 53
120 111 139 129 67 62 283 265 342 322 33 31 105 99 160 150 55 51 122 113
148 138 26 25 101 95 165 155 65 61 137 128 160 150 24 22 96 90 161 150 64
61 127 120 138 133 19 22 23 22 278 22 142 0 258 3 259 8 0 4 2 135 2 290 1
180 -2 286 -8 290 -5 4 -148 7 -317 7 l-308 0 0 -230z"/>
<path d="M373 3323 c-17 -46 -31 -93 -57 -188 -25 -91 -70 -246 -106 -365 -10
-36 -31 -108 -45 -160 -15 -52 -28 -101 -30 -108 -3 -7 -5 -14 -6 -17 -1 -2
-12 -42 -26 -87 -13 -46 -31 -105 -38 -133 -8 -27 -23 -78 -34 -112 -12 -39
-15 -65 -9 -69 5 -3 53 -17 106 -31 53 -13 105 -26 115 -29 9 -2 25 -6 35 -8
9 -3 53 -14 97 -26 44 -12 89 -23 100 -25 11 -2 65 -16 120 -30 55 -15 107
-28 115 -30 8 -2 71 -17 140 -35 69 -18 134 -34 144 -36 10 -2 33 -8 50 -13
17 -6 42 -13 56 -15 29 -6 217 -54 242 -62 14 -4 20 6 33 53 9 32 19 65 21 73
3 8 5 15 4 15 -1 0 4 14 10 30 7 17 13 37 15 45 2 8 10 41 20 72 9 32 16 60
16 63 0 2 6 23 14 46 9 23 17 51 20 63 2 12 23 84 46 161 22 77 45 154 49 170
4 17 29 102 55 190 25 88 48 167 50 175 2 8 8 28 14 43 22 57 18 62 -76 86
-49 12 -97 24 -108 26 -11 2 -20 4 -20 5 0 1 -248 66 -290 75 -48 11 -63 15
-120 31 -33 9 -68 18 -77 20 -38 8 -59 14 -253 64 -110 28 -211 53 -223 56
-36 7 -125 31 -143 39 -12 4 -19 -2 -26 -22z"/>
<path d="M4545 2789 c-191 -151 -269 -211 -323 -252 -24 -17 -58 -44 -75 -59
-18 -15 -122 -97 -232 -182 -226 -175 -202 -164 -600 -280 -5 -2 -17 -6 -25
-9 -8 -3 -49 -16 -90 -27 -136 -40 -164 -48 -265 -80 -55 -17 -107 -33 -115
-35 -8 -2 -41 -12 -72 -23 -32 -11 -58 -19 -58 -17 0 2 -33 -7 -72 -21 -40
-14 -80 -27 -88 -29 -8 -1 -42 -11 -75 -21 -33 -10 -62 -19 -65 -19 -3 -1 -12
-4 -20 -7 -21 -8 -223 -70 -235 -72 -35 -7 -125 -38 -129 -44 -4 -6 26 -102
57 -182 9 -25 55 -164 58 -178 1 -4 12 -34 24 -67 13 -33 34 -94 48 -135 14
-41 58 -167 97 -280 40 -113 75 -216 80 -230 14 -45 181 -522 184 -527 2 -2
100 27 331 97 93 29 174 53 180 55 5 1 17 5 25 8 16 6 218 68 235 72 6 1 17 4
25 7 8 4 49 16 90 28 41 13 109 34 151 47 42 13 86 25 97 28 11 2 29 8 39 13
10 6 20 10 23 10 3 0 25 5 50 12 25 7 46 12 48 11 1 -1 16 6 32 14 17 9 30 14
30 12 0 -5 340 99 346 106 3 3 -55 187 -73 227 -3 8 -7 20 -9 25 -1 6 -41 123
-89 260 -48 138 -93 268 -100 290 -7 22 -43 126 -80 230 -37 105 -87 251 -112
325 -24 74 -49 144 -54 155 -6 12 -11 28 -13 38 -1 9 -5 20 -9 23 -4 4 -7 12
-7 18 0 6 12 -2 26 -19 14 -16 47 -55 74 -85 27 -30 57 -64 67 -76 33 -38 137
-156 158 -178 11 -12 43 -48 70 -80 28 -32 59 -68 70 -80 26 -29 134 -150 160
-180 22 -24 112 -128 144 -164 l20 -24 38 29 c21 15 40 30 43 33 3 3 43 35 90
70 111 85 120 92 139 110 9 8 44 35 76 59 33 25 62 47 65 50 3 4 23 19 45 36
22 16 42 32 45 35 3 4 12 11 21 16 9 5 34 24 55 41 21 18 86 69 144 113 58 45
115 90 127 100 12 10 31 23 42 30 26 13 26 21 4 47 -10 11 -43 49 -73 84 -30
35 -68 78 -85 96 -16 17 -39 42 -49 55 -19 23 -132 151 -193 218 -17 19 -40
45 -50 56 -57 66 -121 139 -138 158 -81 90 -151 171 -158 182 -15 26 -41 13
-142 -67z"/>
</g>
</svg>
