<?xml version="1.0" standalone="no"?>
<!DOCTYPE svg PUBLIC "-//W3C//DTD SVG 20010904//EN"
 "http://www.w3.org/TR/2001/REC-SVG-20010904/DTD/svg10.dtd">
<svg version="1.0" xmlns="http://www.w3.org/2000/svg"
 width="700.000000pt" height="700.000000pt" viewBox="0 0 700.000000 700.000000"
 preserveAspectRatio="xMidYMid meet">
<metadata>
Created by potrace 1.14, written by Peter Selinger 2001-2017
</metadata>
<g transform="translate(0.000000,700.000000) scale(0.100000,-0.100000)"
fill="#000000" stroke="none">
<path d="M5824 6823 c-87 -98 -161 -180 -164 -183 -3 -3 -61 -68 -130 -145
-69 -77 -141 -158 -161 -180 -37 -41 -42 -46 -144 -161 -82 -92 -95 -107 -95
-109 0 -2 384 -307 428 -340 15 -11 90 -69 167 -130 462 -367 417 -334 437
-314 7 8 51 57 98 109 134 151 144 162 160 179 9 9 49 54 90 101 41 47 80 90
85 96 6 6 39 44 75 84 36 40 74 82 85 94 11 12 54 60 95 106 41 47 77 87 80
90 3 3 20 22 38 41 l33 36 -123 97 c-68 53 -130 102 -138 109 -95 76 -167 132
-225 177 -38 30 -75 59 -81 64 -6 6 -26 22 -44 36 -18 14 -99 77 -179 140 -80
63 -165 130 -188 148 l-41 32 -158 -177z"/>
<path d="M3230 6223 l0 -623 53 0 c106 0 898 -1 1083 0 l191 0 -1 623 -1 622
-662 1 -663 0 0 -623z"/>
<path d="M2134 6034 c-38 -43 -82 -92 -99 -110 -16 -17 -43 -47 -59 -65 -17
-19 -102 -115 -190 -214 -89 -99 -174 -195 -191 -214 -16 -19 -38 -41 -47 -50
-9 -9 -18 -21 -20 -27 -3 -9 114 -105 387 -317 50 -39 92 -73 95 -76 3 -3 34
-28 70 -56 36 -27 72 -55 80 -62 8 -7 50 -40 93 -74 l78 -62 27 31 c15 16 59
65 97 108 96 107 163 182 200 224 18 19 94 105 170 190 76 85 150 168 164 183
17 18 22 30 15 35 -7 4 -29 21 -50 38 -22 18 -95 76 -164 130 -69 54 -165 130
-215 169 -49 39 -146 116 -215 170 -69 54 -132 104 -141 112 -14 12 -24 5 -85
-63z"/>
<path d="M5509 4683 c-3 -141 0 -1035 4 -1039 4 -4 670 -7 1072 -4 l61 0 0
535 0 535 -568 0 -568 0 -1 -27z"/>
<path d="M3626 4510 c-2 -8 -4 -136 -4 -284 l0 -270 -43 -40 c-24 -22 -102
-95 -174 -162 -71 -67 -146 -136 -165 -154 -41 -38 -270 -253 -385 -361 -146
-138 -230 -216 -265 -249 -39 -36 -166 -156 -481 -451 -68 -64 -142 -133 -164
-154 -182 -168 -295 -279 -295 -289 0 -6 32 -44 71 -84 l72 -74 50 49 c57 54
56 53 227 213 68 63 137 129 155 145 17 17 61 57 96 90 80 75 350 328 444 416
38 37 86 81 105 99 19 18 91 85 160 150 69 65 141 132 160 150 19 18 91 85
160 150 69 64 143 134 165 155 22 20 74 69 115 108 41 38 90 84 108 101 l32
30 313 1 312 0 1 363 1 362 -26 1 c-14 0 -187 1 -384 2 -310 2 -358 0 -361
-13z"/>
<path d="M445 4067 c-7 -21 -77 -261 -81 -277 -2 -8 -10 -37 -18 -65 -8 -27
-26 -90 -40 -140 -14 -49 -31 -106 -36 -125 -67 -222 -267 -926 -265 -929 4
-3 129 -38 165 -46 8 -2 123 -31 255 -65 132 -33 247 -63 255 -64 8 -2 44 -12
80 -21 36 -9 72 -18 80 -20 8 -2 186 -47 395 -101 209 -53 388 -97 398 -98 16
-1 33 49 117 339 54 187 137 475 185 640 48 165 88 307 91 315 2 8 18 67 37
131 l33 116 -45 12 c-25 6 -188 47 -361 91 -450 115 -592 152 -610 155 -44 10
-542 138 -583 150 -37 11 -49 11 -52 2z"/>
<path d="M5679 3443 c-26 -21 -174 -137 -330 -258 -156 -121 -286 -222 -289
-225 -3 -3 -23 -18 -45 -35 -22 -16 -45 -34 -51 -40 -6 -5 -100 -77 -207 -160
-108 -82 -195 -153 -194 -157 2 -5 177 -209 197 -228 3 -3 39 -43 80 -90 41
-47 80 -90 85 -96 6 -6 39 -44 75 -84 93 -106 302 -343 375 -425 34 -38 82
-93 107 -121 l45 -52 581 452 c320 248 581 456 581 461 0 6 -19 31 -42 56 -23
25 -71 78 -107 119 -36 40 -81 92 -101 114 -20 23 -110 124 -199 226 -90 102
-181 205 -204 230 -23 25 -84 94 -136 154 -52 60 -113 129 -135 153 l-40 44
-46 -38z"/>
<path d="M4390 2565 c-58 -18 -240 -75 -405 -125 -165 -50 -349 -106 -410
-125 -148 -46 -406 -124 -610 -185 -178 -54 -531 -163 -537 -166 -4 -2 4 -35
17 -72 55 -159 417 -1203 610 -1762 36 -104 46 -124 62 -122 26 5 173 48 203
60 14 5 27 9 30 9 4 0 137 39 260 78 76 23 769 234 860 261 47 14 96 29 110
34 27 10 165 52 410 125 85 26 162 49 170 53 8 3 18 4 23 4 11 -3 9 13 -12 70
-11 29 -43 121 -71 203 -28 83 -69 200 -90 260 -21 61 -66 191 -100 290 -34
99 -64 187 -67 195 -3 8 -7 20 -9 25 -1 6 -15 44 -29 85 -15 41 -49 138 -75
215 -222 643 -215 626 -228 624 -4 0 -54 -16 -112 -34z"/>
</g>
</svg>
