<svg width="1764" height="617" viewBox="0 0 1764 617" fill="none" xmlns="http://www.w3.org/2000/svg">
<rect x="553.87" y="270.06" width="346.169" height="346.231" fill="#FFC700"/>
<rect width="245.802" height="245.802" transform="matrix(0.707043 -0.70717 0.707043 0.70717 206.701 443.176)" fill="#FF9900"/>
<rect width="245.785" height="245.819" transform="matrix(0.939673 0.342075 -0.341966 0.939712 1290.73 301.221)" fill="#EA5400"/>
<rect x="1587.45" y="439.714" width="176.546" height="176.578" fill="#EA0046"/>
<rect y="439.714" width="176.546" height="176.578" fill="#EF094E"/>
<rect width="228.484" height="228.5" transform="matrix(0.834023 0.55173 -0.551591 0.834115 1540.41 124.643)" fill="#A51A7E"/>
<rect width="207.707" height="207.734" transform="matrix(0.937967 -0.346724 0.346608 0.93801 711.208 74.5789)" fill="#4C69FF"/>
<path d="M900.365 226.572L900.365 336.24H1003.26V226.572H900.365Z" fill="black"/>
<rect width="384.604" height="31.1896" transform="matrix(-0.683907 -0.729569 0.729446 -0.684038 1243.02 616.687)" fill="black"/>
</svg>
