<svg width="286" height="286" viewBox="0 0 286 286" fill="none" xmlns="http://www.w3.org/2000/svg">
<path fill-rule="evenodd" clip-rule="evenodd" d="M0 39.4953C0 17.6826 17.6826 0 39.4952 0H246.505C268.317 0 286 17.6826 286 39.4952V246.505C286 268.317 268.317 286 246.505 286H39.4953C17.6827 286 0 268.317 0 246.505V39.4953ZM39.4952 13.619C25.2042 13.619 13.6191 25.2042 13.6191 39.4953V90.7937H90.7937V13.619H39.4952ZM104.413 13.619V90.7937H181.587V13.619H104.413ZM195.206 13.619V52.2064V90.7937H272.381V39.4952C272.381 25.2042 260.796 13.619 246.505 13.619H195.206ZM272.381 104.413H195.206V181.587H272.381V104.413ZM272.381 195.206H195.206V272.381H246.505C260.796 272.381 272.381 260.796 272.381 246.505V195.206ZM181.587 272.381V195.206H104.413V272.381H181.587ZM90.7937 272.381V195.206H13.6191V246.505C13.6191 260.796 25.2042 272.381 39.4953 272.381H90.7937ZM13.6191 181.587H90.7937V104.413H13.6191V181.587ZM104.413 104.413V181.587H181.587V104.413H104.413Z" fill="black"/>
<path d="M13.6191 39.4953C13.6191 25.2042 25.2042 13.619 39.4952 13.619H90.7937V90.7937H13.6191V39.4953Z" fill="#EF094E"/>
<path d="M104.413 90.7937V13.619H181.587V90.7937H104.413Z" fill="#4C69FF"/>
<path d="M195.206 90.7937V52.2064V13.619H246.505C260.796 13.619 272.381 25.2042 272.381 39.4952V90.7937H195.206Z" fill="#A51A7E"/>
<path d="M90.7937 181.587H13.6191V104.413H90.7937V181.587Z" fill="#FF9900"/>
<path d="M104.413 181.587V104.413H181.587V181.587H104.413Z" fill="white"/>
<path d="M195.206 104.413H272.381V181.587H195.206V104.413Z" fill="#EA0046"/>
<path d="M90.7937 195.206V272.381H39.4953C25.2042 272.381 13.6191 260.796 13.6191 246.505V195.206H90.7937Z" fill="white"/>
<path d="M181.587 195.206V272.381H104.413V195.206H181.587Z" fill="#FFC700"/>
<path d="M195.206 195.206H272.381V246.505C272.381 260.796 260.796 272.381 246.505 272.381H195.206V195.206Z" fill="#EA5400"/>
</svg>
