<svg width="286" height="287" viewBox="0 0 286 287" fill="none" xmlns="http://www.w3.org/2000/svg">
<path d="M131.898 57.7677V6.80318H186.208V57.7677H131.898Z" fill="black"/>
<path d="M225.002 137.855V94.171H271.554V137.855H225.002Z" fill="black"/>
<path d="M95.2544 94.171L62.0694 68.041L89.915 36.9006L123.1 63.0305L95.2544 94.171Z" fill="black"/>
<path d="M251.083 72.329L209.484 39.5637L244.401 0.527588L286 33.2929L251.083 72.329Z" fill="black"/>
<path d="M186.208 181.539L233.984 144.355L273.608 189.187L225.833 226.371L186.208 181.539Z" fill="black"/>
<path d="M0 183.22L18.2877 119.981L85.6785 137.142L67.3908 200.381L0 183.22Z" fill="black"/>
<path d="M98.8903 206.311L184.374 180.247L212.149 260.464L126.666 286.528L98.8903 206.311Z" fill="black"/>
<path d="M179.675 102.252L148 102.252V131.975H179.675V102.252Z" fill="black"/>
<rect x="67" y="201.236" width="111.092" height="9.00918" transform="rotate(-43.1548 67 201.236)" fill="black"/>
</svg>
