<svg xmlns="http://www.w3.org/2000/svg" width="287" height="286" fill="none" viewBox="0 0 287 286"><path fill="#203BC8" d="M132.898 57.2401V6.2756H187.208V57.2401H132.898Z"/><path fill="#EA0046" d="M226.002 137.327V93.6434H272.554V137.327H226.002Z"/><path fill="#BD0039" d="M96.2544 93.6434L63.0694 67.5135L90.915 36.373L124.1 62.503L96.2544 93.6434Z"/><path fill="#7A1E60" d="M252.083 71.8014L210.484 39.0361L245.401 0L287 32.7653L252.083 71.8014Z"/><path fill="#EA5400" d="M185.374 179.719L233.149 142.536L272.774 187.368L224.999 224.551L185.374 179.719Z"/><path fill="#FFC700" d="M99.8903 205.783L185.374 179.719L213.149 259.936L127.666 286L99.8903 205.783Z"/><path fill="#F90" d="M0.609375 182.351L18.8971 119.112L86.2879 136.273L68.0002 199.512L0.609375 182.351Z"/><path fill="#000" d="M180.675 101.252L149 101.252V130.975H180.675V101.252Z"/><rect width="111.092" height="9.009" x="68" y="200.236" fill="#000" transform="rotate(-43.1548 68 200.236)"/></svg>