<svg width="286" height="286" viewBox="0 0 286 286" fill="none" xmlns="http://www.w3.org/2000/svg">
<path d="M131.898 57.2401V6.2756H186.208V57.2401H131.898Z" fill="#142CA9"/>
<path d="M225.002 137.327V93.6434H271.554V137.327H225.002Z" fill="#EA0046"/>
<path d="M95.2544 93.6434L62.0694 67.5135L89.915 36.373L123.1 62.503L95.2544 93.6434Z" fill="#BD0039"/>
<path d="M251.083 71.8014L209.484 39.0361L244.401 0L286 32.7653L251.083 71.8014Z" fill="#7A1E60"/>
<path d="M186.208 181.011L233.984 143.828L273.608 188.66L225.833 225.843L186.208 181.011Z" fill="#EA5400"/>
<path d="M0 182.692L18.2877 119.453L85.6785 136.614L67.3908 199.853L0 182.692Z" fill="#FF9900"/>
<path d="M98.8903 205.783L184.374 179.719L212.149 259.936L126.666 286L98.8903 205.783Z" fill="#FFC700"/>
<path d="M179.675 101.252L148 101.252V130.975H179.675V101.252Z" fill="black"/>
<rect x="67" y="200.236" width="111.092" height="9.00918" transform="rotate(-43.1548 67 200.236)" fill="black"/>
</svg>
