<svg xmlns="http://www.w3.org/2000/svg" width="286" height="287" fill="none" viewBox="0 0 286 287"><path fill="#000" d="M131.898 57.7677V6.80318H186.208V57.7677H131.898Z"/><path fill="#000" d="M225.002 137.855V94.171H271.554V137.855H225.002Z"/><path fill="#000" d="M95.2544 94.171L62.0694 68.041L89.915 36.9006L123.1 63.0305L95.2544 94.171Z"/><path fill="#000" d="M251.083 72.329L209.484 39.5637L244.401 0.527588L286 33.2929L251.083 72.329Z"/><path fill="#000" d="M186.208 181.539L233.984 144.355L273.608 189.187L225.833 226.371L186.208 181.539Z"/><path fill="#000" d="M0 183.22L18.2877 119.981L85.6785 137.142L67.3908 200.381L0 183.22Z"/><path fill="#000" d="M98.8903 206.311L184.374 180.247L212.149 260.464L126.666 286.528L98.8903 206.311Z"/><path fill="#000" d="M179.675 102.252L148 102.252V131.975H179.675V102.252Z"/><rect width="111.092" height="9.009" x="67" y="201.236" fill="#000" transform="rotate(-43.1548 67 201.236)"/></svg>