<?xml version="1.0" standalone="no"?>
<!DOCTYPE svg PUBLIC "-//W3C//DTD SVG 20010904//EN"
 "http://www.w3.org/TR/2001/REC-SVG-20010904/DTD/svg10.dtd">
<svg version="1.0" xmlns="http://www.w3.org/2000/svg"
 width="700.000000pt" height="700.000000pt" viewBox="0 0 700.000000 700.000000"
 preserveAspectRatio="xMidYMid meet">
<metadata>
Created by potrace 1.14, written by Peter Selinger 2001-2017
</metadata>
<g transform="translate(0.000000,700.000000) scale(0.100000,-0.100000)"
fill="#000000" stroke="none">
<path d="M1215 6493 c-328 -46 -596 -287 -692 -623 -17 -62 -18 -161 -18
-2370 0 -2209 1 -2308 18 -2370 44 -153 118 -283 221 -385 103 -103 227 -175
372 -217 l79 -23 2305 0 c2209 0 2308 1 2370 18 308 88 519 299 607 607 17 62
18 161 18 2370 0 2209 -1 2308 -18 2370 -94 331 -352 567 -677 619 -62 10
-4513 14 -4585 4z m3095 -2993 l0 -810 -810 0 -810 0 0 810 0 810 810 0 810 0
0 -810z m-1910 -1905 l0 -805 -557 0 c-446 0 -572 3 -626 15 -148 31 -290 138
-361 274 -64 122 -66 141 -66 764 l0 557 805 0 805 0 0 -805z"/>
</g>
</svg>
