<?xml version="1.0" standalone="no"?>
<!DOCTYPE svg PUBLIC "-//W3C//DTD SVG 20010904//EN"
 "http://www.w3.org/TR/2001/REC-SVG-20010904/DTD/svg10.dtd">
<svg version="1.0" xmlns="http://www.w3.org/2000/svg"
 width="700.000000pt" height="700.000000pt" viewBox="0 0 700.000000 700.000000"
 preserveAspectRatio="xMidYMid meet">
<metadata>
Created by potrace 1.14, written by Peter Selinger 2001-2017
</metadata>
<g transform="translate(0.000000,700.000000) scale(0.100000,-0.100000)"
fill="#000000" stroke="none">
<path d="M775 6983 c-377 -81 -684 -391 -759 -768 -15 -72 -16 -333 -14 -2750
l3 -2670 23 -74 c107 -344 359 -595 698 -693 l79 -23 2695 0 2695 0 79 23
c342 99 599 356 698 698 l23 79 0 2695 0 2695 -23 79 c-98 340 -347 591 -693
698 l-74 23 -2680 2 c-2351 1 -2689 0 -2750 -14z m3665 -3483 l0 -940 -940 0
-940 0 0 940 0 940 940 0 940 0 0 -940z m-2220 -2220 l0 -940 -652 0 c-734 0
-733 0 -878 71 -117 58 -221 162 -279 279 -71 145 -71 144 -71 878 l0 652 940
0 940 0 0 -940z"/>
</g>
</svg>
